<svg xmlns="http://www.w3.org/2000/svg" width="486.688" height="110.288" viewBox="0 0 486.688 110.288">
  <g id="Group_12" data-name="Group 12" transform="translate(-62.77 -600)">
    <g id="Group_1" data-name="Group 1" transform="translate(62.77 600)">
      <rect id="Rectangle_4" data-name="Rectangle 4" width="31.194" height="31.194" transform="translate(44.115 22.058) rotate(45)" fill="#276dd9" opacity="0.6"/>
      <path id="Rectangle_11" data-name="Rectangle 11" d="M0,0H31.194V31.194H4a4,4,0,0,1-4-4Z" transform="translate(22.058 44.115) rotate(45)" fill="#276dd9" opacity="0.8"/>
      <rect id="Rectangle_7" data-name="Rectangle 7" width="31.194" height="31.194" transform="translate(88.23 22.058) rotate(45)" fill="#276dd9" opacity="0.6"/>
      <rect id="Rectangle_9" data-name="Rectangle 9" width="31.194" height="31.194" transform="translate(66.172 44.115) rotate(45)" fill="#276dd9" opacity="0.8"/>
      <path id="Rectangle_13" data-name="Rectangle 13" d="M0,0H31.194V27.194a4,4,0,0,1-4,4H0Z" transform="translate(88.23 66.173) rotate(45)" fill="#276dd9"/>
      <path id="Rectangle_14" data-name="Rectangle 14" d="M0,0H31.194V27.194a4,4,0,0,1-4,4H0Z" transform="translate(44.115 66.173) rotate(45)" fill="#276dd9"/>
      <path id="Rectangle_15" data-name="Rectangle 15" d="M0,0H31.194V27.194a4,4,0,0,1-4,4H0Z" transform="translate(132.345 66.173) rotate(45)" fill="#276dd9"/>
      <rect id="Rectangle_10" data-name="Rectangle 10" width="31.194" height="31.194" transform="translate(110.287 44.115) rotate(45)" fill="#276dd9" opacity="0.8"/>
      <path id="Rectangle_12" data-name="Rectangle 12" d="M0,0H27.194a4,4,0,0,1,4,4V31.194H0Z" transform="translate(154.402 44.115) rotate(45)" fill="#276dd9" opacity="0.8"/>
      <rect id="Rectangle_8" data-name="Rectangle 8" width="31.194" height="31.194" transform="translate(132.345 22.058) rotate(45)" fill="#276dd9" opacity="0.6"/>
      <path id="Rectangle_5" data-name="Rectangle 5" d="M3,0H31.194V31.194H0V3A3,3,0,0,1,3,0Z" transform="translate(66.172) rotate(45)" fill="#276dd9" opacity="0.4"/>
      <path id="Rectangle_6" data-name="Rectangle 6" d="M3,0H31.194V31.194H0V3A3,3,0,0,1,3,0Z" transform="translate(110.287) rotate(45)" fill="#276dd9" opacity="0.4"/>
    </g>
    <path id="Path_1" data-name="Path 1" d="M5.4-49.971H22.832q10.835,0,15.449,3.213A10.561,10.561,0,0,1,42.9-37.529a12.055,12.055,0,0,1-1.179,5.571,10.267,10.267,0,0,1-2.974,3.623,10.521,10.521,0,0,1-3.674,1.812v.342a15.77,15.77,0,0,1,4.084,1.692,9.334,9.334,0,0,1,3.384,3.521,12.692,12.692,0,0,1,1.35,6.34A13.259,13.259,0,0,1,41.58-6.8,14.578,14.578,0,0,1,35-1.76,26.571,26.571,0,0,1,24.849,0H5.4ZM18.9-30.8h4.067q3.35,0,4.717-1.384a4.612,4.612,0,0,0,1.367-3.367A3.566,3.566,0,0,0,27.5-38.674a8.533,8.533,0,0,0-4.8-1.077H18.9Zm0,9.878v10.493h4.751q3.521,0,4.922-1.521a5.409,5.409,0,0,0,1.4-3.811,5.477,5.477,0,0,0-.6-2.512,4.445,4.445,0,0,0-2.034-1.914,8.817,8.817,0,0,0-3.965-.735ZM65.146,0H51.782V-53.184H65.146Zm46.929-38.726V0H101.992l-1.675-4.819h-.786a10.041,10.041,0,0,1-3.025,3.162A13.09,13.09,0,0,1,92.456.12a18.682,18.682,0,0,1-4.614.564,15.623,15.623,0,0,1-6.853-1.47A11.011,11.011,0,0,1,76.135-5.4a16.216,16.216,0,0,1-1.794-8.1V-38.726H87.705v21.157a12.169,12.169,0,0,0,1.077,5.725,3.722,3.722,0,0,0,3.538,1.965,5.332,5.332,0,0,0,3.914-1.367,7.7,7.7,0,0,0,1.931-4.033,32.9,32.9,0,0,0,.547-6.494V-38.726Zm26.66-.684a22.346,22.346,0,0,1,9.741,1.965,14.083,14.083,0,0,1,6.323,5.9,19.785,19.785,0,0,1,2.222,9.844v5.947H133.13a7.075,7.075,0,0,0,2.273,4.99q2.1,1.948,6.2,1.948a28.8,28.8,0,0,0,6.648-.718,32.408,32.408,0,0,0,6.238-2.222v9.6A23.177,23.177,0,0,1,148.374,0,42.554,42.554,0,0,1,140,.684,25.136,25.136,0,0,1,129.541-1.4a16.034,16.034,0,0,1-7.263-6.46q-2.649-4.375-2.649-11.245a24.285,24.285,0,0,1,2.393-11.467,15.267,15.267,0,0,1,6.7-6.665A21.974,21.974,0,0,1,138.735-39.409Zm.479,9.092a5.557,5.557,0,0,0-3.948,1.487,6.98,6.98,0,0,0-1.863,4.666h11.484a7.681,7.681,0,0,0-.684-3.11,5.231,5.231,0,0,0-1.9-2.222A5.513,5.513,0,0,0,139.214-30.317Zm68.564,4.272q0,8.716-3.247,14.492a20.736,20.736,0,0,1-9.143,8.665A31.172,31.172,0,0,1,181.528,0H165.361V-49.971h17.295A30.654,30.654,0,0,1,196.328-47.2a19.125,19.125,0,0,1,8.528,8.1A26.844,26.844,0,0,1,207.778-26.045Zm-14.014.479a20.189,20.189,0,0,0-1.213-7.537,9.034,9.034,0,0,0-3.64-4.478,11.534,11.534,0,0,0-6.118-1.487h-3.931v27.993h3.008q6.152,0,9.023-3.572T193.765-25.566Zm59.165,6.118a25.706,25.706,0,0,1-1.333,8.613,16.886,16.886,0,0,1-3.862,6.323,16.387,16.387,0,0,1-6.118,3.879,23.414,23.414,0,0,1-8.1,1.316,21.76,21.76,0,0,1-7.708-1.316,17.177,17.177,0,0,1-6.1-3.879,17.335,17.335,0,0,1-4.016-6.323,24.3,24.3,0,0,1-1.418-8.613,23.084,23.084,0,0,1,2.341-10.869,15.871,15.871,0,0,1,6.7-6.768,21.832,21.832,0,0,1,10.408-2.324,20.671,20.671,0,0,1,9.912,2.324,16.737,16.737,0,0,1,6.819,6.768A22.028,22.028,0,0,1,252.93-19.448Zm-25.088,0a22.93,22.93,0,0,0,.581,5.588,6.873,6.873,0,0,0,1.863,3.452,4.777,4.777,0,0,0,3.367,1.179,4.591,4.591,0,0,0,3.315-1.179,7,7,0,0,0,1.794-3.452,23.6,23.6,0,0,0,.564-5.588,22.94,22.94,0,0,0-.564-5.537,6.562,6.562,0,0,0-1.812-3.35,4.831,4.831,0,0,0-3.367-1.128,4.608,4.608,0,0,0-4.392,2.529Q227.842-24.4,227.842-19.448Zm40.913-.308-11.826-18.97H272.1l5.879,10.869L284-38.726h15.21l-12.134,18.97L299.688,0H284.512l-6.528-11.758L271.489,0h-15.21Z" transform="translate(249.77 690)" fill="#161515"/>
  </g>
</svg>
